<svg width="311" height="216" viewBox="0 0 311 216" fill="none" xmlns="http://www.w3.org/2000/svg">
<path fill-rule="evenodd" clip-rule="evenodd" d="M218.5 3C219.328 3 220 2.32843 220 1.5C220 0.671573 219.328 0 218.5 0C217.672 0 217 0.671573 217 1.5C217 2.32843 217.672 3 218.5 3ZM3 4.5C3 5.32843 2.32843 6 1.5 6C0.671573 6 0 5.32843 0 4.5C0 3.67157 0.671573 3 1.5 3C2.32843 3 3 3.67157 3 4.5ZM137.5 65C138.328 65 139 64.3284 139 63.5C139 62.6716 138.328 62 137.5 62C136.672 62 136 62.6716 136 63.5C136 64.3284 136.672 65 137.5 65ZM200 119.5C200 120.328 199.328 121 198.5 121C197.672 121 197 120.328 197 119.5C197 118.672 197.672 118 198.5 118C199.328 118 200 118.672 200 119.5ZM18 172.5C18 173.328 17.3284 174 16.5 174C15.6716 174 15 173.328 15 172.5C15 171.672 15.6716 171 16.5 171C17.3284 171 18 171.672 18 172.5ZM128.5 155C129.328 155 130 154.328 130 153.5C130 152.672 129.328 152 128.5 152C127.672 152 127 152.672 127 153.5C127 154.328 127.672 155 128.5 155ZM239 178.5C239 179.328 238.328 180 237.5 180C236.672 180 236 179.328 236 178.5C236 177.672 236.672 177 237.5 177C238.328 177 239 177.672 239 178.5ZM83.5 56C84.3284 56 85 55.3284 85 54.5C85 53.6716 84.3284 53 83.5 53C82.6716 53 82 53.6716 82 54.5C82 55.3284 82.6716 56 83.5 56ZM282 124.5C282 125.328 281.328 126 280.5 126C279.672 126 279 125.328 279 124.5C279 123.672 279.672 123 280.5 123C281.328 123 282 123.672 282 124.5ZM131.5 14C132.328 14 133 13.3284 133 12.5C133 11.6716 132.328 11 131.5 11C130.672 11 130 11.6716 130 12.5C130 13.3284 130.672 14 131.5 14ZM40 107.5C40 108.328 39.3284 109 38.5 109C37.6716 109 37 108.328 37 107.5C37 106.672 37.6716 106 38.5 106C39.3284 106 40 106.672 40 107.5ZM6 125.5C6 126.328 5.32843 127 4.5 127C3.67157 127 3 126.328 3 125.5C3 124.672 3.67157 124 4.5 124C5.32843 124 6 124.672 6 125.5ZM274.5 53C275.328 53 276 52.3284 276 51.5C276 50.6716 275.328 50 274.5 50C273.672 50 273 50.6716 273 51.5C273 52.3284 273.672 53 274.5 53ZM242 96.5C242 97.3284 241.328 98 240.5 98C239.672 98 239 97.3284 239 96.5C239 95.6716 239.672 95 240.5 95C241.328 95 242 95.6716 242 96.5ZM140.5 178.967C141.328 178.967 142 178.296 142 177.467C142 176.639 141.328 175.967 140.5 175.967C139.672 175.967 139 176.639 139 177.467C139 178.296 139.672 178.967 140.5 178.967ZM288 84.4672C288 85.2957 287.328 85.9672 286.5 85.9672C285.672 85.9672 285 85.2957 285 84.4672C285 83.6388 285.672 82.9672 286.5 82.9672C287.328 82.9672 288 83.6388 288 84.4672ZM77.5 137.967C78.3284 137.967 79 137.296 79 136.467C79 135.639 78.3284 134.967 77.5 134.967C76.6716 134.967 76 135.639 76 136.467C76 137.296 76.6716 137.967 77.5 137.967ZM42 214.467C42 215.296 41.3284 215.967 40.5 215.967C39.6716 215.967 39 215.296 39 214.467C39 213.639 39.6716 212.967 40.5 212.967C41.3284 212.967 42 213.639 42 214.467ZM195.5 151.967C196.328 151.967 197 151.296 197 150.467C197 149.639 196.328 148.967 195.5 148.967C194.672 148.967 194 149.639 194 150.467C194 151.296 194.672 151.967 195.5 151.967ZM158 137.467C158 138.296 157.328 138.967 156.5 138.967C155.672 138.967 155 138.296 155 137.467C155 136.639 155.672 135.967 156.5 135.967C157.328 135.967 158 136.639 158 137.467ZM94.5 181.967C95.3284 181.967 96 181.296 96 180.467C96 179.639 95.3284 178.967 94.5 178.967C93.6716 178.967 93 179.639 93 180.467C93 181.296 93.6716 181.967 94.5 181.967ZM218 199.467C218 200.296 217.328 200.967 216.5 200.967C215.672 200.967 215 200.296 215 199.467C215 198.639 215.672 197.967 216.5 197.967C217.328 197.967 218 198.639 218 199.467ZM143.5 200.967C144.328 200.967 145 200.296 145 199.467C145 198.639 144.328 197.967 143.5 197.967C142.672 197.967 142 198.639 142 199.467C142 200.296 142.672 200.967 143.5 200.967ZM107 199.467C107 200.296 106.328 200.967 105.5 200.967C104.672 200.967 104 200.296 104 199.467C104 198.639 104.672 197.967 105.5 197.967C106.328 197.967 107 198.639 107 199.467ZM289.5 197.967C290.328 197.967 291 197.296 291 196.467C291 195.639 290.328 194.967 289.5 194.967C288.672 194.967 288 195.639 288 196.467C288 197.296 288.672 197.967 289.5 197.967ZM224 68.5C224 69.3284 223.328 70 222.5 70C221.672 70 221 69.3284 221 68.5C221 67.6716 221.672 67 222.5 67C223.328 67 224 67.6716 224 68.5ZM154.5 105.967C155.328 105.967 156 105.296 156 104.467C156 103.639 155.328 102.967 154.5 102.967C153.672 102.967 153 103.639 153 104.467C153 105.296 153.672 105.967 154.5 105.967ZM237 147.467C237 148.296 236.328 148.967 235.5 148.967C234.672 148.967 234 148.296 234 147.467C234 146.639 234.672 145.967 235.5 145.967C236.328 145.967 237 146.639 237 147.467ZM283.5 157.967C284.328 157.967 285 157.296 285 156.467C285 155.639 284.328 154.967 283.5 154.967C282.672 154.967 282 155.639 282 156.467C282 157.296 282.672 157.967 283.5 157.967ZM173.204 181.5C173.204 182.328 172.532 183 171.704 183C170.875 183 170.204 182.328 170.204 181.5C170.204 180.672 170.875 180 171.704 180C172.532 180 173.204 180.672 173.204 181.5ZM221.5 42.9672C222.328 42.9672 223 42.2957 223 41.4672C223 40.6388 222.328 39.9672 221.5 39.9672C220.672 39.9672 220 40.6388 220 41.4672C220 42.2957 220.672 42.9672 221.5 42.9672ZM88 94.5C88 95.3284 87.3284 96 86.5 96C85.6716 96 85 95.3284 85 94.5C85 93.6716 85.6716 93 86.5 93C87.3284 93 88 93.6716 88 94.5ZM180.5 67C181.328 67 182 66.3284 182 65.5C182 64.6716 181.328 64 180.5 64C179.672 64 179 64.6716 179 65.5C179 66.3284 179.672 67 180.5 67ZM66 175.5C66 176.328 65.3284 177 64.5 177C63.6716 177 63 176.328 63 175.5C63 174.672 63.6716 174 64.5 174C65.3284 174 66 174.672 66 175.5ZM13.5 70C14.3284 70 15 69.3284 15 68.5C15 67.6716 14.3284 67 13.5 67C12.6716 67 12 67.6716 12 68.5C12 69.3284 12.6716 70 13.5 70ZM311 26.5C311 27.3284 310.328 28 309.5 28C308.672 28 308 27.3284 308 26.5C308 25.6716 308.672 25 309.5 25C310.328 25 311 25.6716 311 26.5ZM118.5 124C119.328 124 120 123.328 120 122.5C120 121.672 119.328 121 118.5 121C117.672 121 117 121.672 117 122.5C117 123.328 117.672 124 118.5 124Z" fill="white"/>
</svg>
